PathFileType	4	(X/Y/Z)	 s05c0103.trc
DataRate	CameraRate	NumFrames	NumMarkers	Units	OrigDataRate	OrigDataStartFrame	OrigNumFrames
200	200	4	49	mm	200	1751	2000
Frame#	Time	racr			lacr			c7			jug			rlel			rdr			llel			ldr			s2			lic			ric			lasi			rasi			rpsi			lpsi			rgt			lgt			rth1			rth2			rth3			rth4			rlfc			rsh1			rsh2			rsh3			rsh4			rlmal			rmmal			rcal			rtoe			rmt5			lth1			lth2			lth4			lth3			llfc			lmfc			lsh1			lsh2			lsh3			lsh4			llmal			lmmal			lcal			ltoe			lmt5			SBIKE			LBIKE			RBIKE			
		X1	Y1	Z1	X2	Y2	Z2	X3	Y3	Z3	X4	Y4	Z4	X5	Y5	Z5	X6	Y6	Z6	X7	Y7	Z7	X8	Y8	Z8	X9	Y9	Z9	X10	Y10	Z10	X11	Y11	Z11	X12	Y12	Z12	X13	Y13	Z13	X14	Y14	Z14	X15	Y15	Z15	X16	Y16	Z16	X17	Y17	Z17	X18	Y18	Z18	X19	Y19	Z19	X20	Y20	Z20	X21	Y21	Z21	X22	Y22	Z22	X23	Y23	Z23	X24	Y24	Z24	X25	Y25	Z25	X26	Y26	Z26	X27	Y27	Z27	X28	Y28	Z28	X29	Y29	Z29	X30	Y30	Z30	X31	Y31	Z31	X32	Y32	Z32	X33	Y33	Z33	X34	Y34	Z34	X35	Y35	Z35	X36	Y36	Z36	X37	Y37	Z37	X38	Y38	Z38	X39	Y39	Z39	X40	Y40	Z40	X41	Y41	Z41	X42	Y42	Z42	X43	Y43	Z43	X44	Y44	Z44	X45	Y45	Z45	X46	Y46	Z46	X47	Y47	Z47	X48	Y48	Z48	X49	Y49	Z49	
1751	8.7550	495.875662	1265.116984	-166.713429	488.505619	1261.794177	-410.212028	472.997019	1333.815668	-292.224828	415.548579	1184.045569	-290.540530	523.030487	1062.414343	23.260612	696.596643	916.449528	-62.663479	466.561823	1023.638975	-581.498663	682.043534	938.762266	-462.869948	-113.216036	1171.455388	-256.203849	21.303887	1185.602644	-409.469907	43.790054	1184.682091	-126.035728	70.021276	1131.222257	-373.364116	80.886662	1125.369089	-155.774309	-76.003753	1218.088205	-215.971828	-79.891153	1223.753724	-301.922918	-1.240557	1057.961395	-95.897087	-38.142975	1087.002267	-434.188637	98.893563	992.153901	-82.929232	181.146871	958.683005	-80.553623	233.804881	887.773621	-83.200602	202.312008	986.217452	-92.860870	335.696695	783.065524	-104.185908	245.303777	721.961220	-77.909043	199.940440	647.532647	-91.007768	125.127543	603.522511	-96.350658	222.240908	628.092678	-115.713743	35.640512	507.895393	-103.587976	65.128960	523.063087	-182.886815	-34.805556	535.170338	-150.638255	148.206882	301.300825	-151.135331	63.181925	359.485308	-86.296595	66.378227	981.747839	-458.857835	146.147172	949.438975	-458.589146	169.250052	976.484003	-446.380516	200.473041	877.170070	-460.146958	302.490760	773.707137	-431.485450	298.742546	757.673841	-325.161282	265.366976	650.940657	-453.946308	275.533459	564.408528	-443.793405	240.311725	483.231314	-444.002989	306.144115	562.343249	-420.463181	229.377172	356.258995	-434.307711	NaN	NaN	NaN	171.216501	310.316602	-390.564226	464.584373	323.824040	-393.300119	361.370944	283.870560	-457.519835	-214.847523	912.115381	-268.740274	-43.620065	84.672188	-474.786602	-51.896788	80.266124	-77.086188	
1752	8.7600	495.849741	1265.431704	-164.790647	490.281932	1261.972368	-408.500784	474.037345	1334.073257	-290.373004	416.308344	1184.410535	-289.074492	522.533880	1061.603741	23.708262	696.636262	916.408263	-62.492826	468.241317	1025.471742	-582.068171	682.317072	938.780100	-462.728054	-112.519328	1172.215312	-258.729942	23.626019	1184.861589	-411.139497	43.394692	1186.212730	-127.716852	71.982626	1130.441031	-374.483948	81.224265	1127.045287	-156.513600	-75.522453	1218.905934	-218.839453	-78.255048	1222.885161	-304.196202	-0.811982	1060.622211	-96.906521	-36.473003	1085.424443	-435.256215	99.653587	996.359139	-83.429955	182.911723	964.629042	-79.921446	236.924779	894.911512	-82.117835	203.566208	992.563928	-92.151185	340.710290	792.072121	-102.724285	249.988858	731.498247	-76.784572	204.211586	657.384707	-90.135832	129.155158	613.871047	-96.073221	226.591461	637.654622	-114.659272	39.251134	518.732132	-103.517139	69.165828	533.644927	-182.727061	-31.014487	546.276000	-151.030171	150.818915	311.401746	-150.929907	66.182234	370.619434	-85.644507	66.592122	977.902169	-459.409162	145.369066	943.294977	-458.414421	169.220722	969.793553	-446.176013	197.516706	869.533756	-459.097845	296.305676	763.792152	-429.667905	291.281175	747.552136	-322.010285	260.388202	640.648087	-452.949211	271.428018	554.308261	-442.703695	237.143857	472.690742	-443.245577	301.689529	552.567302	-418.887656	226.760575	345.914813	-433.823531	NaN	NaN	NaN	168.668395	300.291242	-390.318340	462.219542	313.012405	-393.284820	358.823105	273.565925	-457.427208	-214.775940	912.157234	-268.735454	-43.606251	84.703159	-474.771573	-51.842268	80.072055	-77.257079	
1753	8.7650	495.884499	1265.801431	-162.861604	492.302333	1262.386368	-406.797275	474.735049	1334.037692	-288.220547	417.963072	1184.009508	-287.353438	522.008083	1060.773710	24.078822	696.629512	916.393979	-62.374936	470.186352	1027.337310	-582.591919	682.670470	938.771743	-462.510104	-111.802825	1172.832806	-261.410608	26.196379	1184.320449	-413.079699	43.017585	1187.742718	-129.517285	74.039011	1129.659687	-375.641038	81.020052	1128.397854	-158.107437	-75.050992	1219.869607	-221.950156	-76.231239	1222.738025	-307.454133	-0.334358	1063.570236	-97.992793	-34.755329	1083.947528	-436.547194	100.571448	1000.613581	-83.565454	184.482046	970.677928	-79.230866	239.978773	902.110529	-80.964062	204.689132	998.900856	-91.704935	345.523345	801.612194	-101.120785	254.081608	741.211284	-75.721996	207.730617	667.056884	-89.723523	133.262545	624.086870	-95.768434	231.021446	647.291357	-113.417777	43.289970	529.295812	-103.375177	75.322240	544.225447	-182.578455	-27.059536	556.931704	-151.290654	154.117219	321.592362	-150.853406	69.774378	380.945878	-85.691920	66.640744	974.090986	-459.889927	144.343784	937.213664	-458.218372	168.896145	963.039990	-445.959167	194.296501	861.853223	-458.201790	289.945067	753.730252	-428.005576	283.088540	737.486510	-321.331234	254.803822	630.244831	-452.044499	266.654918	544.019973	-441.598797	233.144886	462.048163	-441.990911	296.571090	542.647925	-417.269248	223.449381	335.943405	-433.599641	NaN	NaN	NaN	165.480563	290.459534	-390.044907	459.230799	302.364997	-393.279558	355.556611	263.442967	-457.286973	-214.699476	912.186610	-268.687265	-43.556356	84.726566	-474.756031	-51.824917	80.100049	-77.232582	
1754	8.7700	495.768997	1266.719894	-160.180553	495.368138	1263.286560	-405.966412	475.881922	1334.474826	-286.313123	420.119773	1184.070507	-285.680710	521.639632	1059.917983	24.374120	696.671809	916.446940	-62.193419	472.388159	1029.409833	-582.965365	683.180062	938.723254	-462.238300	-110.539709	1173.016582	-265.227627	28.713089	1183.607051	-414.779510	42.705537	1189.376511	-131.394314	76.211861	1129.147304	-377.015001	80.963825	1129.836476	-159.579732	-74.543039	1220.777365	-225.048652	-74.574733	1222.977372	-310.688391	0.191518	1066.741642	-98.967950	-33.028129	1082.497643	-437.846698	101.515727	1005.045033	-83.271419	186.009668	976.621247	-79.119261	243.062126	909.503293	-79.832950	205.623231	1005.579007	-91.175693	350.228358	811.004702	-99.314581	258.644189	750.923296	-74.508145	213.127107	677.178130	-88.224876	137.549331	634.194881	-95.301253	236.245734	657.073884	-111.932776	47.543822	539.553003	-103.283321	77.840783	554.256422	-182.224219	-22.219504	567.463195	-150.684833	158.113893	331.669899	-150.714518	73.871707	391.087853	-85.624915	66.382296	970.296230	-460.634300	143.029929	931.153406	-458.020642	168.281714	956.317612	-445.785528	190.652673	854.321609	-457.312112	283.179514	743.780387	-426.417974	275.050884	727.641184	-320.382438	248.581770	619.910917	-451.459078	261.186187	533.841603	-440.537243	228.370606	451.408142	-440.561016	291.171463	533.186719	-416.585780	219.564919	326.292561	-433.321190	NaN	NaN	NaN	161.701181	280.792952	-389.833206	455.544997	291.941467	-393.186687	351.626634	253.530818	-457.180532	-214.606854	912.250899	-268.644301	-43.547947	84.753309	-474.740288	-51.788187	80.113180	-77.217767	
